{"title":"Predators.2010.TS.XViD-MAGNET","uid":5701825,"size":1245375826,"categoryP":"video","categoryS":"movies","magnet":"?xt=urn:btih:efa5ea1f3d035dfc807c149294888a4dbba83721&amp;dn=Predators.2010.TS.XViD-MAGNET&amp;tr=udp%3A%2F%2Ftracker.openbittorrent.com%3A80&amp;tr=udp%3A%2F%2Fopen.demonii.com%3A1337&amp;tr=udp%3A%2F%2Ftracker.coppersurfer.tk%3A6969&amp;tr=udp%3A%2F%2Fexodus.desync.com%3A6969","seeders":1,"leechers":0,"uploader":"TvTeam","files":4,"time":1279536219,"description":". \n  &lt;a href=&quot;\nhttp://www.torrentday.com/&quot; rel=&quot;nofollow&quot; target=&quot;_NEW&quot;&gt;\nhttp://www.torrentday.com/&lt;/a&gt;        :     The Hottest Private Tracker On The Net!!!\n\n\n               www . TorrentDay . Com \n(((((((((((((= Enjoy No RAR releases =))))))))))))))))))))\n\n\n...................................NFO:....................................\n\n.................................................................................\n................................................................................\n................................................................................\n................................................................................\n................................................................................\n................................................................................\n............................................ MMMMMMMMMMMMM......................\n........................................MMM.............. MMM...................\n.....................................MM......................MM ................\n...................................MM..........................M,...............\n.................................M: ............................MM..............\n...............................M ...........MMMMMMM..............MM.............\n                             M8.        MMMMMMMMMMMMM .          NM             \n                           ?M.        MMMMMMMMMMMMMMMMM          .MM            \n                          M.       +MMMMMMMMM       .~MM.         MM~           \n                        IM       .MMMMMMM7            ,MM        .MMM           \n                       M:       DMMMMMM.               MM        DMMM.          \n                      M.      .MMMMMMM                  M        MMMMZ          \n. .  . .. .  . .. .  M .. .  ?MMMMMM?. .. .  . .. .  . .M .  . ..MMMM$ .. .  . .\n                   OI      .MMMMMMM                     M        MMMMZ          \n                 .M       ,MMMMMM,                     MM       ,MMMM           \n                .M.      ,M.MMMM                       M        MMMMM           \n                MNMI.   MM MM+M.                       M       .MMMMM           \n...............M....MMMIM.$MOM....................... M....... MMMMMM...........\n............. M ......MMM7MMI....................... MD...... MMMMMM. ..........\n............ M?......O?M.MM.........................=M...... MMMMMMM M M........\n.............M...... M  MM .........................M.......MMMMMMM   M. .M ....\n............M.......M,M M..........................M.......8MMMMMM .7.MM,.M ....\n...........M ......M MMM.........................MM.......MMMMMMM ...M..MN .....\n...........M..... MZ MMM........................MM.......MMMMMMM................\n..........M,.....MM+MZM .......................M .......MMMMMMM ................\n......... ,......M.M M .......................M ...... MMMMMMM .................\n.........M .....M.M M .......................MNMM ....MMMMMMM...................\n........ MM.... MM.M.......................M..... MMMMMMMMM~....................\n......... NMMMMMMMIM..................... M........MMMMMMM .....................\n...........MMMMMMMM.....................M ...... MMMMOMMM.......................\n........... MMMMMMM...................~M........MM.MMMM ........................\n................MMM................. M,......,MMM.MMMM .........................\n...................................MM.......MMM.  MM ...........................\n................................. M ......MMMM,M M: ............................\n............................... M.......MM IM.MMM...............................\n............................. MMM. .. MMMM.M7MM ................................\n...............................MMMMMMM~ , M8M,..................................\n................................MMMMM: M IM.....................................\n................................MMMMMZM.M ......................................\n................................. 7MMMM.........................................\n....................................,,..........................................\n                                                                                \n                      MAGNET GRoUP PROUDLY PRESENTS :\n\nGeneral\nComplete name                    : Predators.2010.TS.XViD-MAGNET.avi\nFormat                           : AVI\nFormat/Info                      : Audio Video Interleave\nFile size                        : 1.16 GiB\nDuration                         : 1h 41mn\nOverall bit rate                 : 1 637 Kbps\n\nVideo\nID                               : 0\nFormat                           : MPEG-4 Visual\nFormat profile                   : Advanced Simple@L5\nFormat settings, BVOP            : Yes\nFormat settings, QPel            : No\nFormat settings, GMC             : No warppoints\nFormat settings, Matrix          : Default (H.263)\nCodec ID                         : XVID\nCodec ID/Hint                    : XviD\nDuration                         : 1h 41mn\nBit rate                         : 1 500 Kbps\nWidth                            : 704 pixels\nHeight                           : 304 pixels\nDisplay aspect ratio             : 2.35:1\nFrame rate                       : 25.000 fps\nColor space                      : YUV\nChroma subsampling               : 4:2:0\nBit depth                        : 8 bits\nScan type                        : Progressive\nBits/(Pixel*Frame)               : 0.280\nStream size                      : 1.06 GiB (92%)\nWriting library                  : XviD 1.2.1 (UTC 2008-12-04)\n\nAudio\nID                               : 1\nFormat                           : MPEG Audio\nFormat version                   : Version 1\nFormat profile                   : Layer 3\nMode                             : Joint stereo\nMode extension                   : MS Stereo\nCodec ID                         : 55\nCodec ID/Hint                    : MP3\nDuration                         : 1h 41mn\nBit rate mode                    : Constant\nBit rate                         : 128 Kbps\nChannel(s)                       : 2 channels\nSampling rate                    : 44.1 KHz\nStream size                      : 92.6 MiB (8%)\nAlignment                        : Aligned on interleaves\nInterleave, duration             : 40 ms (1.00 video frame)","torrent":{"xt":"urn:btih:efa5ea1f3d035dfc807c149294888a4dbba83721","amp;dn":"Predators.2010.TS.XViD-MAGNET","amp;tr":["udp%3A%2F%2Ftracker.openbittorrent.com%3A80","udp%3A%2F%2Fopen.demonii.com%3A1337","udp%3A%2F%2Ftracker.coppersurfer.tk%3A6969","udp%3A%2F%2Fexodus.desync.com%3A6969"],"infoHash":"efa5ea1f3d035dfc807c149294888a4dbba83721","infoHashBuffer":{"type":"Buffer","data":[239,165,234,31,61,3,93,252,128,124,20,146,148,136,138,77,187,168,55,33]},"announce":[],"urlList":[]}}